# xmcd CD database file
#
# Track frame offsets:
#	150
#	23646
#	44717
#	62658
#	82932
#
# Disc length: 1236 seconds
#
# Revision: 0
# Processed by: cddbd v1.5.2PL0 Copyright (c) Steve Scherf et al.
# Submitted via: CDex 1.70beta2
#
DISCID=3604d205
DTITLE=Jake Ziha - Jake Ziha
DYEAR=2003
DGENRE=Country
TTITLE0=Wouldn't Change (a Thing)
TTITLE1=Crying Cedars
TTITLE2=If You Stay
TTITLE3=Bourj 06.02
TTITLE4=What You Do
EXTD=YEAR: 2003
EXTT0=
EXTT1=
EXTT2=
EXTT3=
EXTT4=
PLAYORDER=
